<mxfile host="app.diagrams.net" agent="Mozilla/5.0 (Windows NT 10.0; Win64; x64) AppleWebKit/537.36 (KHTML, like Gecko) Chrome/131.0.0.0 Safari/537.36" version="26.0.11">
  <diagram id="KODCjfub7_qWJTIHPHlu" name="Page-1">
    <mxGraphModel dx="1493" dy="624" grid="1" gridSize="10" guides="1" tooltips="1" connect="1" arrows="1" fold="1" page="1" pageScale="1" pageWidth="850" pageHeight="1100" math="0" shadow="0">
      <root>
        <mxCell id="0" />
        <mxCell id="1" parent="0" />
        <mxCell id="ne7B0r6y5r1LqW-tivcn-1" value="" style="rounded=0;whiteSpace=wrap;html=1;" vertex="1" parent="1">
          <mxGeometry x="120" y="40" width="320" height="80" as="geometry" />
        </mxCell>
        <mxCell id="ne7B0r6y5r1LqW-tivcn-3" value="&lt;font style=&quot;font-size: 14px;&quot;&gt;Mobile Application&lt;/font&gt;" style="rounded=1;whiteSpace=wrap;html=1;" vertex="1" parent="1">
          <mxGeometry x="190" y="70" width="170" height="35" as="geometry" />
        </mxCell>
        <mxCell id="ne7B0r6y5r1LqW-tivcn-4" value="Client Layer" style="text;html=1;align=center;verticalAlign=middle;resizable=0;points=[];autosize=1;strokeColor=none;fillColor=none;" vertex="1" parent="1">
          <mxGeometry x="340" y="40" width="90" height="30" as="geometry" />
        </mxCell>
        <mxCell id="ne7B0r6y5r1LqW-tivcn-12" value="" style="rounded=0;whiteSpace=wrap;html=1;" vertex="1" parent="1">
          <mxGeometry x="120" y="400" width="520" height="120" as="geometry" />
        </mxCell>
        <mxCell id="ne7B0r6y5r1LqW-tivcn-13" value="" style="group" vertex="1" connectable="0" parent="1">
          <mxGeometry x="120" y="200" width="1180" height="120" as="geometry" />
        </mxCell>
        <mxCell id="ne7B0r6y5r1LqW-tivcn-2" value="" style="rounded=0;whiteSpace=wrap;html=1;" vertex="1" parent="ne7B0r6y5r1LqW-tivcn-13">
          <mxGeometry width="1180" height="120" as="geometry" />
        </mxCell>
        <mxCell id="ne7B0r6y5r1LqW-tivcn-5" value="&lt;font style=&quot;font-size: 14px;&quot;&gt;Authentication Services&lt;/font&gt;" style="rounded=0;whiteSpace=wrap;html=1;" vertex="1" parent="ne7B0r6y5r1LqW-tivcn-13">
          <mxGeometry x="30" y="50" width="160" height="50" as="geometry" />
        </mxCell>
        <mxCell id="ne7B0r6y5r1LqW-tivcn-6" value="&lt;font style=&quot;font-size: 14px;&quot;&gt;Booking Services&lt;/font&gt;" style="rounded=0;whiteSpace=wrap;html=1;" vertex="1" parent="ne7B0r6y5r1LqW-tivcn-13">
          <mxGeometry x="225" y="50" width="160" height="50" as="geometry" />
        </mxCell>
        <mxCell id="ne7B0r6y5r1LqW-tivcn-7" value="&lt;font style=&quot;font-size: 14px;&quot;&gt;Payment Services&lt;/font&gt;" style="rounded=0;whiteSpace=wrap;html=1;" vertex="1" parent="ne7B0r6y5r1LqW-tivcn-13">
          <mxGeometry x="420" y="50" width="160" height="50" as="geometry" />
        </mxCell>
        <mxCell id="ne7B0r6y5r1LqW-tivcn-8" value="&lt;font style=&quot;font-size: 14px;&quot;&gt;Tracking Services&lt;/font&gt;" style="rounded=0;whiteSpace=wrap;html=1;" vertex="1" parent="ne7B0r6y5r1LqW-tivcn-13">
          <mxGeometry x="610" y="50" width="160" height="50" as="geometry" />
        </mxCell>
        <mxCell id="ne7B0r6y5r1LqW-tivcn-9" value="&lt;font style=&quot;font-size: 14px;&quot;&gt;Notification Service&lt;/font&gt;" style="rounded=0;whiteSpace=wrap;html=1;" vertex="1" parent="ne7B0r6y5r1LqW-tivcn-13">
          <mxGeometry x="800" y="50" width="160" height="50" as="geometry" />
        </mxCell>
        <mxCell id="ne7B0r6y5r1LqW-tivcn-10" value="&lt;font style=&quot;font-size: 14px;&quot;&gt;Messaging Service&lt;/font&gt;" style="rounded=0;whiteSpace=wrap;html=1;" vertex="1" parent="ne7B0r6y5r1LqW-tivcn-13">
          <mxGeometry x="990" y="50" width="160" height="50" as="geometry" />
        </mxCell>
        <mxCell id="ne7B0r6y5r1LqW-tivcn-11" value="&lt;font style=&quot;font-size: 14px;&quot;&gt;Application Layer&lt;/font&gt;" style="text;html=1;align=center;verticalAlign=middle;resizable=0;points=[];autosize=1;strokeColor=none;fillColor=none;" vertex="1" parent="ne7B0r6y5r1LqW-tivcn-13">
          <mxGeometry x="500" y="10" width="130" height="30" as="geometry" />
        </mxCell>
        <mxCell id="ne7B0r6y5r1LqW-tivcn-22" value="" style="endArrow=classic;startArrow=classic;html=1;rounded=0;edgeStyle=orthogonalEdgeStyle;curved=1;" edge="1" parent="ne7B0r6y5r1LqW-tivcn-13" target="ne7B0r6y5r1LqW-tivcn-3">
          <mxGeometry width="50" height="50" relative="1" as="geometry">
            <mxPoint x="100" y="50" as="sourcePoint" />
            <mxPoint x="150" as="targetPoint" />
          </mxGeometry>
        </mxCell>
        <mxCell id="ne7B0r6y5r1LqW-tivcn-14" value="&lt;font style=&quot;font-size: 14px;&quot;&gt;Database&lt;/font&gt;" style="shape=cylinder3;whiteSpace=wrap;html=1;boundedLbl=1;backgroundOutline=1;size=15;" vertex="1" parent="1">
          <mxGeometry x="150" y="430" width="100" height="70" as="geometry" />
        </mxCell>
        <mxCell id="ne7B0r6y5r1LqW-tivcn-15" value="&lt;font style=&quot;font-size: 14px;&quot;&gt;Cache&lt;/font&gt;" style="shape=cylinder3;whiteSpace=wrap;html=1;boundedLbl=1;backgroundOutline=1;size=15;" vertex="1" parent="1">
          <mxGeometry x="540" y="425" width="70" height="70" as="geometry" />
        </mxCell>
        <mxCell id="ne7B0r6y5r1LqW-tivcn-16" value="&lt;font style=&quot;font-size: 14px;&quot;&gt;Data Layer&lt;/font&gt;" style="text;html=1;align=center;verticalAlign=middle;resizable=0;points=[];autosize=1;strokeColor=none;fillColor=none;" vertex="1" parent="1">
          <mxGeometry x="350" y="410" width="90" height="30" as="geometry" />
        </mxCell>
        <mxCell id="ne7B0r6y5r1LqW-tivcn-17" value="" style="rounded=0;whiteSpace=wrap;html=1;" vertex="1" parent="1">
          <mxGeometry x="680" y="400" width="520" height="120" as="geometry" />
        </mxCell>
        <mxCell id="ne7B0r6y5r1LqW-tivcn-18" value="&lt;font style=&quot;font-size: 14px;&quot;&gt;External Services&lt;/font&gt;" style="text;html=1;align=center;verticalAlign=middle;resizable=0;points=[];autosize=1;strokeColor=none;fillColor=none;" vertex="1" parent="1">
          <mxGeometry x="910" y="410" width="130" height="30" as="geometry" />
        </mxCell>
        <mxCell id="ne7B0r6y5r1LqW-tivcn-19" value="Maps Service" style="rounded=0;whiteSpace=wrap;html=1;" vertex="1" parent="1">
          <mxGeometry x="710" y="450" width="140" height="50" as="geometry" />
        </mxCell>
        <mxCell id="ne7B0r6y5r1LqW-tivcn-20" value="Payment Gateway" style="rounded=0;whiteSpace=wrap;html=1;" vertex="1" parent="1">
          <mxGeometry x="880" y="450" width="140" height="50" as="geometry" />
        </mxCell>
        <mxCell id="ne7B0r6y5r1LqW-tivcn-21" value="SMS Service" style="rounded=0;whiteSpace=wrap;html=1;" vertex="1" parent="1">
          <mxGeometry x="1040" y="450" width="140" height="50" as="geometry" />
        </mxCell>
        <mxCell id="ne7B0r6y5r1LqW-tivcn-23" value="" style="endArrow=classic;startArrow=classic;html=1;rounded=0;entryX=0.25;entryY=1;entryDx=0;entryDy=0;" edge="1" parent="1" target="ne7B0r6y5r1LqW-tivcn-5">
          <mxGeometry width="50" height="50" relative="1" as="geometry">
            <mxPoint x="190" y="430" as="sourcePoint" />
            <mxPoint x="240" y="380" as="targetPoint" />
          </mxGeometry>
        </mxCell>
        <mxCell id="ne7B0r6y5r1LqW-tivcn-24" value="" style="endArrow=classic;startArrow=classic;html=1;rounded=0;" edge="1" parent="1" target="ne7B0r6y5r1LqW-tivcn-6">
          <mxGeometry width="50" height="50" relative="1" as="geometry">
            <mxPoint x="200" y="430" as="sourcePoint" />
            <mxPoint x="250" y="380" as="targetPoint" />
          </mxGeometry>
        </mxCell>
        <mxCell id="ne7B0r6y5r1LqW-tivcn-25" value="" style="endArrow=classic;startArrow=classic;html=1;rounded=0;entryX=0.075;entryY=0.907;entryDx=0;entryDy=0;entryPerimeter=0;" edge="1" parent="1" target="ne7B0r6y5r1LqW-tivcn-7">
          <mxGeometry width="50" height="50" relative="1" as="geometry">
            <mxPoint x="220" y="430" as="sourcePoint" />
            <mxPoint x="270" y="380" as="targetPoint" />
          </mxGeometry>
        </mxCell>
        <mxCell id="ne7B0r6y5r1LqW-tivcn-26" value="" style="endArrow=classic;startArrow=classic;html=1;rounded=0;entryX=0.25;entryY=1;entryDx=0;entryDy=0;" edge="1" parent="1" target="ne7B0r6y5r1LqW-tivcn-8">
          <mxGeometry width="50" height="50" relative="1" as="geometry">
            <mxPoint x="580" y="425" as="sourcePoint" />
            <mxPoint x="630" y="375" as="targetPoint" />
          </mxGeometry>
        </mxCell>
        <mxCell id="ne7B0r6y5r1LqW-tivcn-27" value="" style="endArrow=classic;startArrow=classic;html=1;rounded=0;entryX=0.44;entryY=1.007;entryDx=0;entryDy=0;entryPerimeter=0;" edge="1" parent="1" target="ne7B0r6y5r1LqW-tivcn-6">
          <mxGeometry width="50" height="50" relative="1" as="geometry">
            <mxPoint x="755" y="450" as="sourcePoint" />
            <mxPoint x="805" y="400" as="targetPoint" />
          </mxGeometry>
        </mxCell>
        <mxCell id="ne7B0r6y5r1LqW-tivcn-28" value="" style="endArrow=classic;startArrow=classic;html=1;rounded=0;entryX=0.585;entryY=0.973;entryDx=0;entryDy=0;entryPerimeter=0;" edge="1" parent="1" target="ne7B0r6y5r1LqW-tivcn-7">
          <mxGeometry width="50" height="50" relative="1" as="geometry">
            <mxPoint x="940" y="450" as="sourcePoint" />
            <mxPoint x="990" y="420" as="targetPoint" />
          </mxGeometry>
        </mxCell>
        <mxCell id="ne7B0r6y5r1LqW-tivcn-29" value="" style="endArrow=classic;startArrow=classic;html=1;rounded=0;entryX=0.75;entryY=1;entryDx=0;entryDy=0;" edge="1" parent="1" target="ne7B0r6y5r1LqW-tivcn-9">
          <mxGeometry width="50" height="50" relative="1" as="geometry">
            <mxPoint x="1100" y="450" as="sourcePoint" />
            <mxPoint x="1200" y="400" as="targetPoint" />
          </mxGeometry>
        </mxCell>
      </root>
    </mxGraphModel>
  </diagram>
</mxfile>
